<svg width="32" height="32" viewBox="0 0 32 32" fill="none" xmlns="http://www.w3.org/2000/svg">
<g id="Facebook">
<path id="Vector" fill-rule="evenodd" clip-rule="evenodd" d="M2.66699 8.00008C2.66699 6.58559 3.2289 5.22904 4.22909 4.22885C5.22928 3.22865 6.58584 2.66675 8.00033 2.66675H24.0003C25.4148 2.66675 26.7714 3.22865 27.7716 4.22885C28.7718 5.22904 29.3337 6.58559 29.3337 8.00008V24.0001C29.3337 25.4146 28.7718 26.7711 27.7716 27.7713C26.7714 28.7715 25.4148 29.3334 24.0003 29.3334H8.00033C6.58584 29.3334 5.22928 28.7715 4.22909 27.7713C3.2289 26.7711 2.66699 25.4146 2.66699 24.0001V8.00008ZM8.00033 5.33341C7.29308 5.33341 6.6148 5.61437 6.11471 6.11446C5.61461 6.61456 5.33366 7.29284 5.33366 8.00008V24.0001C5.33366 24.7073 5.61461 25.3856 6.11471 25.8857C6.6148 26.3858 7.29308 26.6667 8.00033 26.6667H16.0003V17.3334H14.667C14.3134 17.3334 13.9742 17.1929 13.7242 16.9429C13.4741 16.6928 13.3337 16.3537 13.3337 16.0001C13.3337 15.6465 13.4741 15.3073 13.7242 15.0573C13.9742 14.8072 14.3134 14.6667 14.667 14.6667H16.0003V12.6667C16.0003 11.4291 16.492 10.2421 17.3672 9.36692C18.2423 8.49175 19.4293 8.00008 20.667 8.00008H21.467C21.8206 8.00008 22.1597 8.14056 22.4098 8.39061C22.6598 8.64065 22.8003 8.97979 22.8003 9.33341C22.8003 9.68704 22.6598 10.0262 22.4098 10.2762C22.1597 10.5263 21.8206 10.6667 21.467 10.6667H20.667C20.4043 10.6667 20.1443 10.7185 19.9016 10.819C19.659 10.9195 19.4385 11.0668 19.2528 11.2525C19.0671 11.4383 18.9197 11.6587 18.8192 11.9014C18.7187 12.144 18.667 12.4041 18.667 12.6667V14.6667H21.467C21.8206 14.6667 22.1597 14.8072 22.4098 15.0573C22.6598 15.3073 22.8003 15.6465 22.8003 16.0001C22.8003 16.3537 22.6598 16.6928 22.4098 16.9429C22.1597 17.1929 21.8206 17.3334 21.467 17.3334H18.667V26.6667H24.0003C24.7076 26.6667 25.3858 26.3858 25.8859 25.8857C26.386 25.3856 26.667 24.7073 26.667 24.0001V8.00008C26.667 7.29284 26.386 6.61456 25.8859 6.11446C25.3858 5.61437 24.7076 5.33341 24.0003 5.33341H8.00033Z" fill="black"/>
</g>
</svg>
