<svg width="32" height="32" viewBox="0 0 32 32" fill="none" xmlns="http://www.w3.org/2000/svg">
<g id="Google">
<path id="Vector" fill-rule="evenodd" clip-rule="evenodd" d="M16 6.66668C14.2111 6.66714 12.46 7.1817 10.9552 8.1491C9.45041 9.1165 8.25535 10.496 7.51229 12.1233C6.76924 13.7506 6.5095 15.5571 6.76401 17.3279C7.01852 19.0986 7.77656 20.7589 8.94785 22.111C10.1192 23.4632 11.6544 24.4502 13.3707 24.9546C15.087 25.4591 16.9122 25.4596 18.6288 24.9562C20.3454 24.4528 21.8812 23.4667 23.0533 22.1152C24.2254 20.7638 24.9845 19.1039 25.24 17.3333H17.3333C16.9797 17.3333 16.6406 17.1929 16.3905 16.9428C16.1405 16.6928 16 16.3536 16 16C16 15.6464 16.1405 15.3073 16.3905 15.0572C16.6406 14.8072 16.9797 14.6667 17.3333 14.6667H26.6667C27.0203 14.6667 27.3594 14.8072 27.6095 15.0572C27.8595 15.3073 28 15.6464 28 16C27.9997 18.7219 27.0741 21.3628 25.3751 23.4893C23.6761 25.6158 21.3046 27.1015 18.6499 27.7025C15.9953 28.3036 13.2151 27.9843 10.7658 26.7971C8.31651 25.6098 6.3436 23.6252 5.1709 21.1689C3.99819 18.7126 3.69538 15.9306 4.31216 13.2796C4.92894 10.6285 6.42867 8.26586 8.56518 6.57947C10.7017 4.89309 13.3481 3.98314 16.0699 3.99898C18.7917 4.01483 21.4273 4.95553 23.544 6.66668C23.819 6.88911 23.9943 7.21165 24.0314 7.56334C24.0685 7.91503 23.9644 8.26707 23.742 8.54201C23.5196 8.81696 23.197 8.99228 22.8454 9.02941C22.4937 9.06654 22.1416 8.96244 21.8667 8.74001C20.2076 7.39504 18.1358 6.66282 16 6.66668Z" fill="black"/>
</g>
</svg>
