<svg width="32" height="32" viewBox="0 0 32 32" fill="none" xmlns="http://www.w3.org/2000/svg">
<g id="Hicon / Outline / Left 1">
<g id="Left 1">
<path id="Vector" d="M11.3703 10.0435C11.7626 9.65473 11.7654 9.02157 11.3766 8.62931C10.9878 8.23704 10.3547 8.23422 9.9624 8.623L7.56942 10.9947C6.66813 11.888 5.93149 12.618 5.40908 13.2685C4.86584 13.945 4.4726 14.6316 4.36755 15.4557C4.32149 15.8171 4.32149 16.1828 4.36755 16.5441C4.4726 17.3683 4.86584 18.0549 5.40908 18.7313C5.93149 19.3818 6.66813 20.1119 7.56943 21.0051L9.9624 23.3768C10.3547 23.7656 10.9878 23.7628 11.3766 23.3705C11.7654 22.9783 11.7625 22.3451 11.3703 21.9563L9.01966 19.6266C8.06567 18.6811 7.41127 18.0303 6.96847 17.479C6.82456 17.2998 6.71229 17.142 6.62511 16.9999H26.6663C27.2186 16.9999 27.6663 16.5522 27.6663 15.9999C27.6663 15.4476 27.2186 14.9999 26.6663 14.9999H6.62511C6.71229 14.8578 6.82456 14.7 6.96847 14.5209C7.41127 13.9695 8.06567 13.3188 9.01966 12.3733L11.3703 10.0435Z" fill="#2D264B"/>
</g>
</g>
</svg>
