<svg width="32" height="32" viewBox="0 0 32 32" fill="none" xmlns="http://www.w3.org/2000/svg">
<g id="Linkedin">
<path id="Vector" fill-rule="evenodd" clip-rule="evenodd" d="M8.00033 2.66675C6.58584 2.66675 5.22928 3.22865 4.22909 4.22885C3.2289 5.22904 2.66699 6.58559 2.66699 8.00008V24.0001C2.66699 25.4146 3.2289 26.7711 4.22909 27.7713C5.22928 28.7715 6.58584 29.3334 8.00033 29.3334H24.0003C25.4148 29.3334 26.7714 28.7715 27.7716 27.7713C28.7718 26.7711 29.3337 25.4146 29.3337 24.0001V8.00008C29.3337 6.58559 28.7718 5.22904 27.7716 4.22885C26.7714 3.22865 25.4148 2.66675 24.0003 2.66675H8.00033ZM5.33366 8.00008C5.33366 7.29284 5.61461 6.61456 6.11471 6.11446C6.6148 5.61437 7.29308 5.33341 8.00033 5.33341H24.0003C24.7076 5.33341 25.3858 5.61437 25.8859 6.11446C26.386 6.61456 26.667 7.29284 26.667 8.00008V24.0001C26.667 24.7073 26.386 25.3856 25.8859 25.8857C25.3858 26.3858 24.7076 26.6667 24.0003 26.6667H8.00033C7.29308 26.6667 6.6148 26.3858 6.11471 25.8857C5.61461 25.3856 5.33366 24.7073 5.33366 24.0001V8.00008ZM12.0003 14.6667C12.0003 14.3131 11.8598 13.974 11.6098 13.7239C11.3598 13.4739 11.0206 13.3334 10.667 13.3334C10.3134 13.3334 9.97423 13.4739 9.72418 13.7239C9.47413 13.974 9.33366 14.3131 9.33366 14.6667V22.6667C9.33366 23.0204 9.47413 23.3595 9.72418 23.6096C9.97423 23.8596 10.3134 24.0001 10.667 24.0001C11.0206 24.0001 11.3598 23.8596 11.6098 23.6096C11.8598 23.3595 12.0003 23.0204 12.0003 22.6667V14.6667ZM12.667 10.0001C12.667 10.5305 12.4563 11.0392 12.0812 11.4143C11.7061 11.7894 11.1974 12.0001 10.667 12.0001C10.1366 12.0001 9.62785 11.7894 9.25278 11.4143C8.87771 11.0392 8.66699 10.5305 8.66699 10.0001C8.66699 9.46965 8.87771 8.96094 9.25278 8.58587C9.62785 8.21079 10.1366 8.00008 10.667 8.00008C11.1974 8.00008 11.7061 8.21079 12.0812 8.58587C12.4563 8.96094 12.667 9.46965 12.667 10.0001ZM16.0003 13.3334C16.4537 13.3334 16.8537 13.5601 17.0937 13.9041C17.7809 13.5296 18.551 13.3333 19.3337 13.3334C22.2137 13.3334 24.0003 15.9014 24.0003 18.0947V22.6667C24.0003 23.0204 23.8598 23.3595 23.6098 23.6096C23.3598 23.8596 23.0206 24.0001 22.667 24.0001C22.3134 24.0001 21.9742 23.8596 21.7242 23.6096C21.4741 23.3595 21.3337 23.0204 21.3337 22.6667V18.0934C21.3337 17.0694 20.4537 15.9987 19.3337 15.9987C18.635 15.9987 17.863 16.3787 17.3337 17.2827V22.6667C17.3337 23.0204 17.1932 23.3595 16.9431 23.6096C16.6931 23.8596 16.3539 24.0001 16.0003 24.0001C15.6467 24.0001 15.3076 23.8596 15.0575 23.6096C14.8075 23.3595 14.667 23.0204 14.667 22.6667V14.6667C14.667 14.3131 14.8075 13.974 15.0575 13.7239C15.3076 13.4739 15.6467 13.3334 16.0003 13.3334Z" fill="black"/>
</g>
</svg>
