<svg width="32" height="32" viewBox="0 0 32 32" fill="none" xmlns="http://www.w3.org/2000/svg">
<g id="Twitter">
<path id="Vector" fill-rule="evenodd" clip-rule="evenodd" d="M19.7983 7.54407C19.1891 7.54382 18.5876 7.6788 18.0369 7.93929C17.4863 8.19978 17.0004 8.57927 16.6143 9.05036C16.2281 9.52145 15.9514 10.0724 15.8041 10.6634C15.6567 11.2545 15.6424 11.8708 15.7623 12.4681C15.8035 12.675 15.7951 12.8888 15.7376 13.0918C15.6802 13.2948 15.5753 13.4813 15.4318 13.636C15.2882 13.7906 15.11 13.9089 14.9118 13.9813C14.7136 14.0536 14.501 14.0779 14.2916 14.0521C11.4246 13.6999 8.72189 12.5213 6.51293 10.6601C6.55426 11.4627 6.83293 12.3161 7.43693 13.2094L8.34226 14.5481L6.85559 15.1814L6.56893 15.3041C6.78226 15.5481 7.03826 15.7974 7.32493 16.0441C7.70815 16.3721 8.11355 16.6732 8.53826 16.9454L8.55293 16.9547H8.55426L10.6183 18.2067L8.45826 19.2867C8.35159 19.3401 8.24493 19.3881 8.13826 19.4307C8.60271 19.8167 9.11437 20.1419 9.66092 20.3987L11.5143 21.2747L9.96226 22.6134C9.11559 23.3441 8.26359 23.8894 7.15826 24.1774C8.85351 25.0804 10.7455 25.5508 12.6663 25.5467C19.0743 25.5467 24.2343 20.4334 24.2343 14.1681V13.4747L24.8009 13.0761C25.6863 12.4547 26.3116 11.6147 26.7596 10.6534H23.8796L23.5169 9.8934C23.183 9.19029 22.6564 8.59633 21.9984 8.18048C21.3404 7.76463 20.578 7.54396 19.7996 7.54407H19.7983ZM4.75826 17.2774C4.63244 17.4215 4.5391 17.591 4.48457 17.7743C4.43005 17.9577 4.41562 18.1506 4.44226 18.3401C4.59293 19.4081 5.23159 20.3281 5.93826 21.0307C6.13026 21.2214 6.33559 21.4041 6.55159 21.5787L6.45159 21.6054C5.81026 21.7654 4.94493 21.7987 3.50359 21.6587C3.2314 21.632 2.95759 21.6897 2.71926 21.8238C2.48094 21.958 2.28965 22.1622 2.17131 22.4088C2.05297 22.6554 2.01333 22.9324 2.05774 23.2022C2.10215 23.4721 2.22848 23.7218 2.41959 23.9174C3.75395 25.2813 5.34798 26.3641 7.10762 27.102C8.86726 27.8398 10.7569 28.2177 12.6649 28.2134C20.2823 28.2134 26.5303 22.2987 26.8836 14.8347C28.6036 13.3907 29.4636 11.4347 29.9276 9.6574C29.9792 9.46014 29.9848 9.25367 29.9441 9.05387C29.9034 8.85408 29.8174 8.66628 29.6928 8.50493C29.5681 8.34357 29.4081 8.21295 29.2251 8.12312C29.042 8.03328 28.8408 7.98663 28.6369 7.98674H25.4996C24.7322 6.79517 23.6107 5.87399 22.2928 5.35265C20.9748 4.8313 19.5267 4.736 18.1518 5.08013C16.7769 5.42426 15.5444 6.19052 14.6274 7.27124C13.7105 8.35196 13.1552 9.69282 13.0396 11.1054C10.5818 10.4656 8.3827 9.07981 6.74493 7.13874C6.59988 6.96725 6.41387 6.83517 6.20415 6.75478C5.99443 6.67438 5.7678 6.64827 5.54529 6.67886C5.32278 6.70945 5.1116 6.79575 4.93136 6.92976C4.75111 7.06377 4.60764 7.24113 4.51426 7.4454C3.70626 9.20807 3.55159 11.2401 4.45293 13.3067L4.14093 13.4401C3.84236 13.5673 3.60044 13.799 3.46053 14.0919C3.32062 14.3847 3.29231 14.7185 3.38093 15.0307C3.62893 15.9001 4.18626 16.6681 4.75693 17.2774H4.75826Z" fill="black"/>
</g>
</svg>
