<svg width="496" height="420" viewBox="0 0 496 420" fill="none" xmlns="http://www.w3.org/2000/svg">
<g id="uconBrand">
<g id="Clip path group">
<mask id="mask0_66_148" style="mask-type:luminance" maskUnits="userSpaceOnUse" x="0" y="0" width="496" height="420">
<g id="SVGID_2_">
<path id="Vector" d="M493.646 419.559L495.409 419.998H251.804C275.15 411.193 309.071 309.924 255.327 245.64C236.825 223.625 207.311 212.177 176.916 210.416C171.188 209.974 165.023 211.296 160.176 214.379C152.247 219.662 146.079 229.348 166.344 246.521C185.286 262.371 206.43 280.864 223.169 301.117C234.623 315.647 244.314 330.619 248.72 345.588C259.732 382.574 232.42 420 193.215 420H2.47256C2.47256 420 77.8002 397.104 39.9164 326.657C-85.1897 93.2962 108.637 0.393066 290.569 0.393066H294.092C335.501 0.393066 383.957 17.5656 416.555 53.2296C416.555 53.2296 484.394 107.828 453.557 205.134C452.676 207.775 451.355 210.857 450.473 213.939C448.271 219.222 446.069 224.946 443.425 230.67C398.932 324.454 441.222 384.334 474.701 408.992C480.43 413.394 486.598 416.916 493.646 419.559ZM223.611 23.2887C153.569 44.4243 149.164 100.783 166.344 140.849C180 172.55 232.42 198.969 260.173 219.222C270.746 226.707 280.878 236.835 290.569 250.043C337.264 66.4376 253.566 14.0422 223.611 23.2887Z" fill="white"/>
</g>
</mask>
<g mask="url(#mask0_66_148)">
<g id="Group">
<path id="Vector_2" d="M520.629 -25.9959C468.757 -22.1541 421.28 3.13091 371.226 -19.9403C350.828 -29.3422 335.969 -42.7039 312.441 -44.1363C288.255 -45.609 263.585 -33.9406 241.216 -26.5645C186.489 -8.51733 157.508 -26.4356 105.098 -39.3592C60.9369 -50.2494 16.0931 -29.1185 -27.916 -25.9959C-27.916 -27.7467 -27.916 -28.6229 -27.916 -30.3753C16.2563 -32.9432 60.9726 -51.7174 105.275 -42.1726C156.403 -31.1567 187.849 -15.0701 240.839 -30.8211C263.366 -37.5168 287.181 -47.4375 311.176 -46.2351C334.417 -45.0715 350.129 -33.3083 370.9 -24.9908C421.202 -4.84794 468.982 -27.2356 520.627 -30.3768C520.629 -28.6245 520.629 -27.7483 520.629 -25.9959Z" fill="url(#paint0_linear_66_148)"/>
<path id="Vector_3" d="M520.629 -13.5511C470.303 -7.87611 418.454 28.0349 372.173 -5.55982C354.168 -18.6295 339.773 -36.0568 316.112 -38.3048C291.62 -40.6319 263.907 -23.5091 242.318 -14.4785C219.261 -4.83278 196.909 4.60015 171.649 -1.68691C147.764 -7.63221 127.769 -23.6396 104.592 -31.4398C60.8545 -46.1593 15.5817 -18.2784 -27.916 -13.5511C-27.916 -15.3019 -27.916 -16.1781 -27.916 -17.9304C15.7651 -22.0954 60.884 -47.6072 104.772 -34.2252C127.68 -27.2407 148.181 -11.5657 171.874 -7.0947C197.249 -2.30522 218.39 -9.59585 241.933 -18.7321C263.84 -27.2329 290.401 -42.3734 314.822 -40.3554C338.898 -38.3669 352.283 -21.9525 371.842 -10.6212C421.221 17.9852 468.337 -12.7448 520.63 -17.9304C520.629 -16.1796 520.629 -15.3035 520.629 -13.5511Z" fill="url(#paint1_linear_66_148)"/>
<path id="Vector_4" d="M520.629 -1.10573C470.787 6.33405 416.387 51.1871 373.082 8.76995C358.065 -5.94026 343.218 -30.6333 319.657 -32.249C293.895 -34.0169 265.165 -13.2138 243.378 -2.37184C220.181 9.17387 197.319 21.8024 171.038 13.5998C146.562 5.95965 127.529 -13.4841 104.1 -23.3878C60.7317 -41.7223 15.0937 -7.3291 -27.916 -1.10573C-27.916 -2.85654 -27.916 -3.73271 -27.916 -5.48508C15.2553 -11.2051 60.783 -43.3597 104.27 -26.2555C127.61 -17.0758 146.984 1.18726 171.25 8.24331C197.192 15.7872 219.85 4.27875 243.018 -6.63623C263.957 -16.4995 293.883 -37.3321 318.445 -34.4395C342.319 -31.626 356.277 -11.0404 372.774 3.74123C416.906 43.2797 470.832 1.3364 520.63 -5.48508C520.629 -3.73427 520.629 -2.85809 520.629 -1.10573Z" fill="url(#paint2_linear_66_148)"/>
<path id="Vector_5" d="M520.629 11.3395C470.588 20.2893 414.897 72.8244 373.862 22.9318C360.704 6.93373 346.876 -23.4607 322.778 -25.4322C296.489 -27.5822 265.563 -2.19471 244.297 9.80773C221.121 22.8883 197.601 38.5058 170.499 28.6177C145.416 19.4675 127.348 -3.09885 103.67 -14.8807C60.5203 -36.3549 14.7207 3.9137 -27.916 11.3395C-27.916 9.58868 -27.916 8.71251 -27.916 6.96014C14.8341 -0.0865936 60.6058 -38.3854 103.813 -17.9458C127.402 -6.7869 145.806 14.7261 170.678 23.3761C197.515 32.7112 220.796 18.0973 243.997 5.51072C265.429 -6.11733 295.645 -29.9777 321.748 -27.952C345.642 -26.0986 359.851 2.37572 373.609 17.9745C415.419 65.3784 470.665 15.4299 520.629 6.96014C520.629 8.71095 520.629 9.58713 520.629 11.3395Z" fill="url(#paint3_linear_66_148)"/>
<path id="Vector_6" d="M520.629 23.7845C470.421 33.671 413.493 92.6626 374.423 36.8045C362.571 19.8587 349.978 -15.0658 325.173 -17.3168C298.316 -19.7527 265.923 9.20476 244.976 22.1067C221.954 36.2871 197.779 54.3032 170.084 43.1754C144.427 32.8679 127.268 7.64347 103.344 -5.60333C60.2219 -29.4777 14.5217 15.6254 -27.916 23.7845C-27.916 22.0337 -27.916 21.1575 -27.916 19.4051C14.5684 11.4403 60.3369 -32.1063 103.445 -8.97601C127.282 3.81406 144.752 28.1654 170.213 38.1172C197.726 48.8706 221.681 31.608 244.771 17.7615C265.8 5.15163 297.783 -22.7029 324.432 -20.3555C348.965 -18.1946 362.019 15.3302 374.257 31.9622C413.97 85.9312 470.463 29.0447 520.629 19.4051C520.629 21.1559 520.629 22.0321 520.629 23.7845Z" fill="url(#paint4_linear_66_148)"/>
<path id="Vector_7" d="M520.629 36.2296C470.496 46.1954 412.284 109.978 374.674 50.2687C363.433 32.422 352.3 -4.92293 326.543 -7.3666C299.021 -9.9765 266.257 20.9586 245.317 34.5783C222.568 49.3724 197.874 68.813 169.846 57.084C143.689 46.1379 127.351 18.8738 103.165 4.76944C59.8411 -20.4953 14.5482 27.9851 -27.916 36.2296C-27.916 34.4788 -27.916 33.6026 -27.916 31.8503C14.5093 23.5499 59.9841 -23.9333 103.208 0.974207C127.301 14.858 143.915 41.4836 169.907 52.2759C197.851 63.8775 222.385 44.8035 245.242 30.1678C266.144 16.7843 298.922 -13.6723 326.198 -11.1106C351.587 -8.72593 363.259 28.0675 374.629 45.5849C412.683 104.219 470.431 41.9031 520.63 31.8503C520.629 33.6011 520.629 34.4773 520.629 36.2296Z" fill="url(#paint5_linear_66_148)"/>
<path id="Vector_8" d="M520.629 48.6746C470.488 58.3281 412.076 123.444 374.588 63.0229C363.38 44.9586 352.619 7.41332 326.575 5.01159C298.987 2.46693 266.312 33.3585 245.321 47.0279C222.585 61.8344 197.876 81.3046 169.84 69.5678C143.666 58.6109 127.357 31.2846 103.16 17.1616C59.8255 -8.13113 14.5544 40.441 -27.916 48.6746C-27.916 46.9238 -27.916 46.0476 -27.916 44.2953C14.6336 36.2325 59.6701 -13.0775 103.143 12.3923C127.438 26.6272 143.487 54.4832 169.812 65.5023C197.89 77.2561 222.727 57.6027 245.337 42.7122C266.397 28.844 298.911 -2.28061 326.737 0.337062C353.017 2.81025 363.436 40.3462 374.657 58.6389C411.852 119.276 470.633 53.9006 520.63 44.2968C520.629 46.0461 520.629 46.9223 520.629 48.6746Z" fill="url(#paint6_linear_66_148)"/>
<path id="Vector_9" d="M520.629 61.1202C470.249 70.8141 412.489 134.997 373.859 76.0308C362.345 58.4543 350.781 22.127 325.256 19.8527C298.368 17.4571 265.948 46.5001 244.995 59.4393C221.981 73.6524 197.784 91.7399 170.071 80.5779C144.395 70.2362 127.268 44.9233 103.333 31.6345C60.2079 7.68865 14.5171 52.944 -27.916 61.1202C-27.916 59.3694 -27.916 58.4932 -27.916 56.7408C14.5015 48.4622 60.0836 1.85054 103.255 26.3992C127.281 40.0607 144.107 66.1613 169.969 76.7874C197.826 88.2352 222.226 69.5293 245.155 55.049C266.097 41.824 298.717 11.9484 325.856 14.3874C351.538 16.6959 362.849 53.6416 374.201 71.3672C412.379 130.977 470.311 66.4332 520.63 56.7393C520.629 58.4916 520.629 59.3678 520.629 61.1202Z" fill="url(#paint7_linear_66_148)"/>
<path id="Vector_10" d="M520.629 73.5655C470.159 83.1848 412.666 146.17 372.479 89.6987C360.224 72.4765 348.093 38.7963 322.893 36.5686C296.741 34.2569 265.421 60.0732 244.327 72.0244C221.154 85.1531 197.608 100.873 170.48 90.9306C145.376 81.7292 127.341 59.0557 103.654 47.2101C60.511 25.6349 14.7098 66.1024 -27.916 73.5655C-27.916 71.8147 -27.916 70.9385 -27.916 69.1861C14.6197 61.4108 60.4146 19.1164 103.528 41.6237C127.303 54.0347 145.007 77.6978 170.32 87.3498C197.681 97.7832 221.465 81.1419 244.595 67.5782C265.623 55.248 297.409 28.1703 323.824 30.5052C349.12 32.7423 361.077 67.485 373.028 84.8253C412.624 142.277 470.182 78.8396 520.629 69.1846C520.629 70.9369 520.629 71.8131 520.629 73.5655Z" fill="url(#paint8_linear_66_148)"/>
<path id="Vector_11" d="M520.629 86.0093C470.082 95.4935 412.716 157.041 370.637 103.833C357.289 86.9539 344.796 56.8546 319.789 54.6144C294.41 52.3401 264.76 74.0489 243.414 84.7308C220.214 96.3402 197.33 109.085 171.015 100.814C146.515 93.1151 127.519 73.5486 104.082 63.5704C60.7255 45.1131 15.0766 79.7363 -27.916 86.0093C-27.916 84.2585 -27.916 83.3824 -27.916 81.63C14.9305 74.8955 60.6602 38.1208 103.925 57.7447C127.45 68.4158 146.105 89.1195 170.817 97.378C197.444 106.275 220.551 92.4393 243.758 80.2489C265.008 69.0869 295.291 45.8635 320.947 48.1471C346.01 50.3764 358.397 81.8118 371.327 98.8181C412.707 153.245 470.117 91.167 520.629 81.63C520.629 83.3824 520.629 84.2585 520.629 86.0093Z" fill="url(#paint9_linear_66_148)"/>
<path id="Vector_12" d="M520.629 98.4544C469.89 107.793 412.744 167.685 368.523 118.246C352.954 100.841 341.625 77.5084 316.249 73.4537C292.957 69.7315 262.715 88.9345 242.359 97.5145C219.293 107.236 196.928 116.787 171.626 110.427C147.721 104.418 127.76 88.2789 104.573 80.3995C60.8498 65.5401 15.5631 93.6696 -27.916 98.4544C-27.916 96.7036 -27.916 95.8274 -27.916 94.0751C15.3828 88.7434 60.8141 58.279 104.397 74.4449C127.672 83.0777 147.298 100.449 171.408 107.064C197.086 114.109 219.609 103.432 242.743 93.0109C262.9 83.9291 294.054 62.9551 317.528 66.769C342.985 70.9044 354.168 95.4748 369.288 113.155C412.733 163.96 469.978 103.464 520.63 94.0751C520.629 95.8274 520.629 96.7036 520.629 98.4544Z" fill="url(#paint10_linear_66_148)"/>
<path id="Vector_13" d="M520.628 110.899C469.484 120.119 412.84 178.185 366.322 132.746C349.432 116.248 337.713 96.4124 312.569 92.5364C289.843 89.0348 262.093 103.377 241.258 110.318C186.346 128.612 157.624 110.5 105.081 97.3694C60.9318 86.3363 16.074 107.716 -27.918 110.897C-27.918 109.147 -27.918 108.27 -27.918 106.518C15.8969 102.771 60.9023 79.0131 104.902 91.4008C127.787 97.8432 148.478 112.449 172.036 116.596C197.03 120.995 218.277 114.342 241.643 105.811C262.329 98.2595 290.925 82.2521 313.859 85.8252C339.087 89.7556 350.669 110.804 367.093 127.643C412.793 174.498 469.653 115.774 520.627 106.516C520.628 108.272 520.628 109.148 520.628 110.899Z" fill="url(#paint11_linear_66_148)"/>
<path id="Vector_14" d="M520.628 123.345C468.836 132.504 413.07 188.628 364.224 147.141C346.083 131.732 333.922 115.092 309.055 111.325C286.969 107.979 261.3 118.03 240.21 123.096C190.09 135.137 154.489 122.167 105.566 114.168C61.0592 106.891 16.4937 121.687 -27.918 123.345C-27.918 121.592 -27.918 120.718 -27.918 118.965C16.3631 116.793 61.0033 99.7281 105.399 108.297C155.579 117.982 188.825 132.736 240.565 118.606C261.597 112.863 287.933 101.387 310.252 104.782C335.224 108.578 347.214 126.288 364.936 142.1C412.967 184.954 469.087 128.139 520.625 118.965C520.628 120.718 520.628 121.594 520.628 123.345Z" fill="url(#paint12_linear_66_148)"/>
<path id="Vector_15" d="M520.628 135.79C467.303 145.077 414.262 198.575 362.418 161.243C343.004 147.263 330.692 133.014 306.009 129.273C284.389 125.997 260.606 132.987 239.317 135.796C192.737 141.942 152.122 134.547 105.985 130.472C61.2799 126.523 16.7393 135.36 -27.918 135.792C-27.918 134.041 -27.918 133.165 -27.918 131.412C16.6724 130.598 61.1929 119.765 105.847 124.813C152.76 130.115 192.028 139.765 239.607 131.341C260.763 127.595 285.312 119.806 307.008 123.088C331.845 126.846 343.88 141.914 363.007 156.327C414.144 194.861 467.581 140.694 520.627 131.412C520.628 133.163 520.628 134.039 520.628 135.79Z" fill="url(#paint13_linear_66_148)"/>
<path id="Vector_16" d="M520.628 148.235C463.952 158.017 417.566 206.866 361.091 174.856C340.296 163.069 328.428 149.602 303.73 145.838C282.805 142.649 259.626 147.121 238.676 148.367C194.133 151.014 150.741 147.287 106.295 145.959C61.5162 144.622 16.8419 148.51 -27.918 148.235C-27.918 146.484 -27.918 145.608 -27.918 143.856C16.8248 143.955 61.4292 138.544 106.201 140.623C151.07 142.704 193.812 147.696 238.868 143.961C259.947 142.215 283.273 136.983 304.427 140.2C329.349 143.992 340.77 157.955 361.492 170.133C417.498 203.046 464.157 153.624 520.628 143.856C520.628 145.608 520.628 146.484 520.628 148.235Z" fill="url(#paint14_linear_66_148)"/>
<path id="Vector_17" d="M520.629 160.681C463.41 170.559 417.926 218.056 360.432 187.796C339.7 176.884 326.583 164.137 302.523 160.479C282.129 157.378 258.991 160.547 238.389 160.76C149.673 161.676 60.8063 161.179 -27.916 160.681C-27.916 158.93 -27.916 158.054 -27.916 156.301C60.6819 157.006 149.883 158.568 238.444 156.422C259.16 155.921 282.244 152.445 302.807 155.58C327.088 159.281 339.776 172.158 360.577 183.332C417.77 214.055 463.592 166.138 520.63 156.303C520.629 158.054 520.629 158.93 520.629 160.681Z" fill="url(#paint15_linear_66_148)"/>
<path id="Vector_18" d="M520.629 173.125C463.531 183.131 417.169 230.475 359.944 200.124C339.176 189.109 326.195 176.277 302.04 172.606C281.786 169.529 258.77 172.751 238.308 173.009C149.653 174.126 60.741 173.778 -27.916 173.125C-27.916 171.374 -27.916 170.498 -27.916 168.746C60.8405 169.108 149.639 169.12 238.395 168.749C258.896 168.664 282.081 165.584 302.341 168.656C326.3 172.286 339.623 185.039 360.308 195.847C417.833 225.909 463.387 178.726 520.63 168.746C520.629 170.498 520.629 171.374 520.629 173.125Z" fill="url(#paint16_linear_66_148)"/>
<path id="Vector_19" d="M520.628 185.57C463.581 195.513 413.945 243.645 357.581 211.562C336.772 199.718 324.763 186.012 300.014 182.244C280.04 179.204 257.61 183.371 237.562 184.427C194.832 186.681 152.815 183.821 110.143 182.731C64.045 181.553 18.149 185.746 -27.918 185.567C-27.918 183.816 -27.918 182.94 -27.918 181.188C60.2774 181.814 149.766 183.683 237.901 180.514C258.141 179.785 280.8 176.035 300.908 179.097C325.442 182.833 337.791 196.128 358.619 207.644C415.288 238.979 463.621 191.174 520.628 181.188C520.628 182.943 520.628 183.82 520.628 185.57Z" fill="url(#paint17_linear_66_148)"/>
<path id="Vector_20" d="M520.628 198.016C466.605 207.155 405.163 259.926 353.622 222.148C334.376 208.04 321.137 193.673 296.59 189.981C277.099 187.049 255.517 192.794 236.219 195.027C194.507 199.85 156.184 194.461 114.737 191.632C67.0214 188.376 19.7188 197.326 -27.918 198.014C-27.918 196.263 -27.918 195.387 -27.918 193.635C19.1251 193.319 65.8573 186.147 112.961 188.621C154.816 190.821 194.728 195.197 236.748 191.374C256.339 189.591 278.257 184.461 297.927 187.439C322.484 191.157 335.453 204.988 355.166 218.503C407.927 254.675 466.025 202.99 520.627 193.635C520.628 195.389 520.628 196.265 520.628 198.016Z" fill="url(#paint18_linear_66_148)"/>
<path id="Vector_21" d="M520.629 210.461C466.142 219.26 398.728 273.366 348.546 232.137C330.13 217.006 317.102 200 292.186 196.389C273.161 193.632 252.793 201.381 234.46 205.053C193.103 213.338 161.069 204.718 120.5 199.635C71.1329 193.45 21.3372 208.417 -27.916 210.461C-27.916 208.71 -27.916 207.834 -27.916 206.082C20.8103 204.553 69.5366 191.865 118.372 196.897C159.199 201.103 193.729 208.533 235.116 201.575C253.806 198.434 274.649 191.424 293.821 194.25C318.619 197.905 331.686 213.89 350.43 228.674C401.093 268.637 466.344 215.005 520.629 206.082C520.629 207.834 520.629 208.71 520.629 210.461Z" fill="url(#paint19_linear_66_148)"/>
<path id="Vector_22" d="M520.629 222.906C465.379 231.345 391.64 286.783 342.835 241.784C325.518 225.819 312.396 205.424 287.224 202.036C268.471 199.512 249.731 209.474 232.463 214.748C190.76 227.487 166.862 215.21 126.926 207.121C76.8028 196.97 22.1967 219.311 -27.916 222.906C-27.916 221.155 -27.916 220.279 -27.916 218.527C22.0335 215.477 74.5989 195.869 124.621 204.52C164.79 211.467 191.649 222.417 233.182 211.359C250.831 206.659 270.191 197.487 289.009 200.099C314.104 203.582 327.161 222.712 344.888 238.412C394.177 282.068 465.676 227.091 520.63 218.527C520.629 220.279 520.629 221.155 520.629 222.906Z" fill="url(#paint20_linear_66_148)"/>
<path id="Vector_23" d="M520.629 235.351C464.427 243.458 384.421 300.131 336.966 251.349C320.887 234.82 307.439 210.528 282.125 207.498C263.349 205.252 246.582 217.435 230.405 224.365C188.278 242.414 172.37 226.165 133.513 214.481C84.3876 199.712 21.603 230.368 -27.916 235.351C-27.916 233.601 -27.916 232.724 -27.916 230.972C21.9962 226.437 81.5029 198.766 131.21 211.882C170.541 222.261 189.114 237.084 231.126 220.975C247.685 214.626 265.176 203.214 283.909 205.561C309.183 208.729 322.5 231.614 339.019 247.977C386.945 295.446 464.775 239.19 520.629 230.972C520.629 232.724 520.629 233.601 520.629 235.351Z" fill="url(#paint21_linear_66_148)"/>
<path id="Vector_24" d="M520.629 247.797C463.435 255.626 377.59 313.373 331.423 261.088C316.549 244.242 302.705 215.942 277.311 213.349C258.225 211.399 243.594 225.631 228.471 234.15C211.973 243.445 196.561 251.534 177.008 245.491C162.398 240.977 153.584 227.851 139.763 222.106C113.756 211.295 80.6512 224.146 55.2653 230.542C27.4004 237.564 0.617245 244.227 -27.916 247.797C-27.916 246.046 -27.916 245.17 -27.916 243.417C0.0841293 240.136 26.4336 233.885 53.8214 227.278C79.5632 221.068 111.292 209.521 137.635 219.37C151.886 224.697 161.852 237.133 176.776 241.292C196.457 246.776 212.1 239.443 229.129 230.674C244.613 222.698 260 209.158 278.948 211.211C304.315 213.961 318.024 240.869 333.307 257.627C379.918 308.73 463.778 251.337 520.629 243.419C520.629 245.17 520.629 246.046 520.629 247.797Z" fill="url(#paint22_linear_66_148)"/>
<path id="Vector_25" d="M520.629 260.241C479.335 265.671 441.504 280.148 401.235 289.993C367.467 298.246 349.423 299.172 326.684 271.257C312.815 254.231 298.695 222.337 273.203 220.158C253.576 218.48 241.039 234.416 226.838 244.349C211.85 254.83 196.743 265.11 177.537 257.529C163.582 252.022 157.976 237.243 145.172 230.38C120.375 217.089 83.0665 233.463 58.9147 240.173C29.8359 248.25 1.98189 255.971 -27.916 260.241C-27.916 258.49 -27.916 257.614 -27.916 255.862C1.53271 251.812 29.0401 244.442 57.7226 236.713C82.3298 230.083 118.148 214.893 143.397 227.37C156.521 233.856 163.231 248.108 177.378 253.274C196.701 260.33 211.859 250.816 227.369 240.698C241.872 231.237 255.129 215.85 274.545 217.618C299.993 219.932 314.042 250.645 328.232 267.614C351.072 294.928 369.175 294.061 402.573 285.762C442.415 275.862 479.739 261.307 520.632 255.863C520.629 257.614 520.629 258.49 520.629 260.241Z" fill="url(#paint23_linear_66_148)"/>
<path id="Vector_26" d="M520.629 272.687C478.434 278.119 439.42 292.385 398.179 302.098C363.612 310.24 345.688 311.41 323.234 282.113C310.025 264.882 295.939 230.402 270.225 228.499C249.886 226.993 239.244 244.104 225.686 255.208C211.993 266.425 196.743 278.655 177.79 269.78C164.17 263.403 161.367 247.478 149.238 239.689C125.677 224.56 84.5027 243.753 61.6036 250.545C31.6171 259.437 3.02792 267.987 -27.916 272.687C-27.916 270.936 -27.916 270.06 -27.916 268.307C2.70308 263.72 31.0809 255.43 60.7892 246.793C84.1094 240.012 124.02 221.7 147.991 236.271C160.318 243.763 164.035 259.345 177.739 265.44C196.766 273.9 211.92 262.302 226.027 251.296C239.768 240.574 251.047 223.802 271.119 225.353C296.735 227.33 310.879 261.052 324.272 278.199C346.824 307.071 364.782 306.002 399.116 297.823C440.062 288.068 478.707 273.731 520.63 268.307C520.629 270.06 520.629 270.936 520.629 272.687Z" fill="url(#paint24_linear_66_148)"/>
<path id="Vector_27" d="M520.629 285.132C477.978 290.649 438.26 304.72 396.51 314.358C361.637 322.407 343.755 323.984 321.547 293.916C308.527 276.286 294.951 240.818 268.792 238.943C247.598 237.424 238.556 254.957 225.192 266.976C212.324 278.55 196.508 292.03 177.661 282.323C164.097 275.339 163.281 258.826 151.456 250.422C128.784 234.309 84.8741 255.187 62.9698 261.933C32.4968 271.321 3.64651 280.4 -27.916 285.132C-27.916 283.381 -27.916 282.505 -27.916 280.753C3.48487 275.979 32.3057 267.048 62.6621 257.793C84.8773 251.022 127.988 230.587 150.917 246.459C162.805 254.688 164.201 271.062 177.756 277.871C196.623 287.35 212.189 274.2 225.279 262.716C238.647 250.989 248.215 233.504 269.092 234.992C295.064 236.843 308.883 272.18 321.908 289.639C344.196 319.514 362.084 318.104 396.914 310.024C438.546 300.367 478.078 286.229 520.627 280.753C520.629 282.505 520.629 283.381 520.629 285.132Z" fill="url(#paint25_linear_66_148)"/>
<path id="Vector_28" d="M520.629 297.577C478.659 303.518 438.806 316.131 397.518 325.281C362.325 333.081 345.609 334.466 322.304 305.277C308.981 288.589 293.423 253.674 268.334 251.688C246.74 249.981 238.413 267.522 225.072 279.875C212.428 291.582 196.39 305.224 177.532 295.404C163.828 288.269 163.422 271.454 151.507 262.906C129.078 246.816 84.6286 267.846 62.9698 274.478C32.5015 283.813 3.62475 292.858 -27.916 297.577C-27.916 295.827 -27.916 294.95 -27.916 293.198C3.6776 288.492 32.5357 279.383 63.0351 269.984C84.7032 263.305 129.141 242.22 151.614 258.356C163.473 266.871 163.916 283.549 177.558 290.652C196.404 300.465 212.47 286.827 225.173 275.177C238.537 262.92 247.096 245.341 268.601 247.037C294.225 249.06 308.673 284.369 321.783 301.584C344.487 331.391 361.68 329.83 396.786 321.846C438.369 312.392 478.269 299.052 520.632 293.197C520.629 294.95 520.629 295.827 520.629 297.577Z" fill="url(#paint26_linear_66_148)"/>
<path id="Vector_29" d="M520.629 310.022C480.254 315.407 441.116 325.435 401.155 333.053C366.343 339.69 350.175 340.364 324.83 314.363C310.172 299.325 290.924 266.929 266.902 265.587C244.925 264.36 237.783 281.229 224.429 294.125C212.009 306.118 196.281 319.749 177.333 309.864C163.376 302.582 163.093 285.206 150.96 276.494C128.613 260.448 84.3706 281.074 62.6263 287.56C32.287 296.609 3.42736 305.385 -27.916 310.022C-27.916 308.271 -27.916 307.395 -27.916 305.643C3.50508 300.957 32.3803 292.074 62.7724 282.912C84.4685 276.371 128.82 255.565 151.192 271.613C163.239 280.255 163.567 297.408 177.423 304.628C196.331 314.482 212.203 300.845 224.71 288.972C238.049 276.311 245.685 259.113 267.51 260.591C291.834 262.238 309.702 295.73 323.781 311.383C348.375 338.731 364.591 337.772 399.637 330.625C440.14 322.365 479.621 311.343 520.629 305.643C520.629 307.395 520.629 308.271 520.629 310.022Z" fill="url(#paint27_linear_66_148)"/>
<path id="Vector_30" d="M520.629 322.468C459.891 328.732 381.139 362.339 328.587 321.772C311.751 308.775 288.241 280.403 264.659 280.292C242.208 280.186 236.785 295.668 223.355 309.436C211.233 321.862 196.085 335.457 176.977 325.451C162.676 317.963 162.527 299.819 150.113 290.852C127.808 274.739 84.0519 294.686 62.087 300.995C31.9327 309.656 3.17091 318.056 -27.916 322.468C-27.916 320.717 -27.916 319.841 -27.916 318.089C3.26727 313.583 32.0694 305.042 62.2953 296.234C84.1701 289.86 128.123 269.647 150.439 285.727C162.748 294.596 162.947 312.449 177.117 319.86C196.161 329.818 211.538 316.207 223.773 303.947C237.175 290.518 243.24 274.478 265.525 275.041C289.19 275.639 311.155 305.552 327.149 319.322C378.23 363.3 460.13 325.107 520.63 318.089C520.629 319.841 520.629 320.717 520.629 322.468Z" fill="url(#paint28_linear_66_148)"/>
<path id="Vector_31" d="M520.629 334.913C459.846 338.248 389.006 357.9 333.192 328.031C313.642 317.568 285.636 294.041 261.865 295.551C239.003 297.004 235.463 310.616 221.99 325.478C210.235 338.444 195.841 351.975 176.52 341.813C161.815 334.08 161.804 315.023 149.067 305.739C126.776 289.491 83.6976 308.571 61.4171 314.674C31.4819 322.873 2.87404 330.824 -27.916 334.913C-27.916 333.162 -27.916 332.286 -27.916 330.533C2.98129 326.323 31.6482 318.208 61.6658 309.839C83.8281 303.661 127.16 284.26 149.454 300.456C162.075 309.623 162.135 328.346 176.693 335.989C195.933 346.093 210.607 332.537 222.498 319.771C235.968 305.311 240.166 291.006 262.898 290.134C286.528 289.229 312.951 314.518 331.501 325.926C386.379 359.671 459.725 335.02 520.63 330.533C520.629 332.286 520.629 333.162 520.629 334.913Z" fill="url(#paint29_linear_66_148)"/>
<path id="Vector_32" d="M520.629 347.358C461.08 346.918 395.283 352.718 338.259 333.664C314.241 325.638 284.89 309.476 258.769 311.113C235.927 312.544 233.117 326.769 220.465 341.919C209.133 355.489 195.574 368.932 176.006 358.601C160.864 350.605 160.99 330.552 147.909 320.917C125.618 304.5 83.3168 322.618 60.6757 328.488C30.9814 336.182 2.55386 343.645 -27.916 347.358C-27.916 345.607 -27.916 344.731 -27.916 342.979C2.66733 339.131 31.1617 331.492 60.9415 323.617C83.452 317.664 126.033 299.202 148.324 315.558C161.284 325.067 161.204 344.764 176.192 352.666C195.67 362.938 209.528 349.462 221.014 336.109C234.451 320.489 236.844 308.183 259.879 305.618C284.128 302.918 314.984 323.126 336.45 331.72C393.261 354.465 460.528 343.931 520.63 342.979C520.629 344.731 520.629 345.607 520.629 347.358Z" fill="url(#paint30_linear_66_148)"/>
<path id="Vector_33" d="M520.629 359.803C462.271 355.247 401.051 349.141 343.4 339.194C316.274 334.514 283.429 323.1 255.623 326.723C232.551 329.729 231.378 342.158 218.916 358.422C208.044 372.61 195.311 385.953 175.482 375.452C159.899 367.199 160.157 346.126 146.732 336.137C124.443 319.55 82.9266 336.704 59.9219 342.317C30.4747 349.502 2.23213 356.469 -27.916 359.802C-27.916 358.051 -27.916 357.175 -27.916 355.422C2.34404 351.958 30.6504 344.816 60.1846 337.453C83.0634 331.748 124.851 314.26 147.143 330.79C160.447 340.656 160.234 361.372 175.664 369.534C195.401 379.977 208.418 366.598 219.455 352.626C232 336.744 233.709 323.707 256.719 321.237C283.881 318.321 315.556 331.363 341.607 337.224C398.886 350.112 462.036 352.334 520.629 355.421C520.629 357.176 520.629 358.052 520.629 359.803Z" fill="url(#paint31_linear_66_148)"/>
<path id="Vector_34" d="M520.629 372.248C491.253 367.883 464.126 358.29 435.399 351.261C406.765 344.253 377.49 346.547 348.231 345.149C318.24 343.715 282.468 336.555 252.681 342.131C229.51 346.468 229.626 357.409 217.472 374.66C207.069 389.427 195.076 402.677 174.995 392.023C158.997 383.535 159.378 361.489 145.63 351.167C123.355 334.444 82.549 350.711 59.2163 356.062C30.0022 362.763 1.92438 369.258 -27.916 372.248C-27.916 370.498 -27.916 369.621 -27.916 367.869C2.03007 364.765 30.1623 358.108 59.4556 351.243C82.6795 345.8 123.722 329.235 146.005 345.916C159.642 356.125 159.303 377.838 175.16 386.247C195.156 396.851 207.394 383.569 217.961 368.999C230.234 352.076 230.534 340.655 253.679 336.749C282.756 331.842 317.57 340.426 346.593 342.974C375.446 345.506 404.55 344.192 433.002 349.968C462.434 355.943 490.746 364.15 520.632 367.872C520.629 369.621 520.629 370.498 520.629 372.248Z" fill="url(#paint32_linear_66_148)"/>
<path id="Vector_35" d="M520.629 384.693C492.139 378.81 468.531 365.72 441.433 355.949C412.366 345.467 382.602 350.715 352.364 352.048C319.945 353.477 281.94 349.859 250.194 357.08C226.965 362.363 228.052 372.254 216.27 390.294C206.306 405.549 194.896 418.729 174.596 407.953C158.234 399.267 158.73 376.357 144.696 365.759C122.452 348.959 82.2023 364.504 58.6194 369.604C29.6106 375.877 1.65394 381.959 -27.916 384.693C-27.916 382.943 -27.916 382.066 -27.916 380.314C1.74409 377.502 29.7365 371.283 58.8137 364.869C82.3189 359.683 122.742 343.906 145.001 360.689C158.938 371.198 158.483 393.82 174.723 402.442C194.952 413.18 206.545 399.98 216.657 384.883C228.572 367.095 227.795 356.889 251.001 351.888C282.08 345.191 319.387 349.962 351.013 349.48C380.975 349.023 410.498 344.805 439.463 354.102C467.066 362.96 491.928 374.905 520.629 380.316C520.629 382.066 520.629 382.943 520.629 384.693Z" fill="url(#paint33_linear_66_148)"/>
<path id="Vector_36" d="M520.629 397.139C492.111 390.407 472.016 374.667 445.852 362.713C416.877 349.475 385.916 357.17 355.413 360.418C321.179 364.064 281.811 363.115 248.416 371.321C225.077 377.056 226.869 386.423 215.442 404.995C205.841 420.6 194.789 433.744 174.327 422.891C157.679 414.061 158.287 390.466 144.019 379.673C121.829 362.887 81.9119 377.95 58.1906 382.834C29.3387 388.775 1.43808 394.535 -27.9189 397.137C-27.9189 395.386 -27.9189 394.51 -27.9189 392.758C1.50491 390.126 29.4165 384.265 58.3165 378.22C82.0036 373.266 122.007 358.065 144.219 374.868C158.411 385.604 157.844 408.983 174.402 417.768C194.814 428.601 205.964 415.448 215.68 399.948C227.225 381.529 225.654 372.045 248.941 366.406C281.806 358.447 320.809 360.226 354.484 357.271C384.979 354.596 415.449 347.647 444.513 360.049C470.916 371.315 492.225 386.228 520.626 392.758C520.629 394.512 520.629 395.388 520.629 397.139Z" fill="url(#paint34_linear_66_148)"/>
<path id="Vector_37" d="M520.629 409.584C491.137 403.028 474.204 385.603 448.082 372.292C419.567 357.764 387.109 366.538 356.994 370.784C321.696 375.761 282.114 376.471 247.601 384.601C224.031 390.153 226.271 399.656 215.127 418.427C205.764 434.196 194.784 447.352 174.246 436.483C157.417 427.577 158.136 403.541 143.699 392.668C121.591 376.017 81.7096 390.914 57.9946 395.641C29.236 401.377 1.30423 406.943 -27.916 409.584C-27.916 407.833 -27.916 406.957 -27.916 405.205C1.34309 402.6 29.2515 396.98 58.035 391.191C81.7703 386.417 121.626 371.503 143.767 388.216C158.153 399.075 157.472 422.989 174.252 431.877C194.775 442.747 205.743 429.601 215.172 413.866C226.404 395.119 224.29 385.755 247.763 380.053C281.954 371.748 321.614 371.5 356.63 366.876C386.943 362.875 418.882 354.276 447.583 368.554C473.604 381.5 491.587 398.444 520.629 405.205C520.629 406.957 520.629 407.833 520.629 409.584Z" fill="url(#paint35_linear_66_148)"/>
<path id="Vector_38" d="M520.629 422.029C491.555 415.433 473.95 398.607 447.961 385.706C419.278 371.468 387.33 379.825 357.097 384.064C322.261 388.95 282.838 389.45 248.828 397.605C226.14 403.045 227.021 412.845 215.517 430.566C205.44 446.088 194.861 458.35 174.523 448.041C157.855 439.592 157.028 416.272 142.577 405.824C120.023 389.52 81.5761 403.761 57.3606 408.447C28.8398 413.966 1.01531 419.295 -27.9189 422.029C-27.9189 420.278 -27.9189 419.402 -27.9189 417.65C1.16608 414.919 29.0807 409.48 57.7352 403.859C81.7564 399.147 120.843 384.574 143.19 401.095C157.614 411.759 157.706 435.475 174.433 444.146C194.862 454.737 205.523 442.023 215.229 426.354C226.493 408.172 225.007 398.396 248.045 392.882C282.296 384.684 321.928 384.092 357.005 379.116C387.203 374.833 419.468 366.26 448.08 380.715C474.136 393.878 491.311 411.052 520.626 417.65C520.629 419.402 520.629 420.278 520.629 422.029Z" fill="url(#paint36_linear_66_148)"/>
<path id="Vector_39" d="M520.629 434.474C492.187 428.298 473.294 412.766 447.398 400.971C418.709 387.906 387.866 395.344 357.847 399.349C323.86 403.883 286.097 404.411 252.803 411.844C230.997 416.713 229.802 426.23 217.141 442.313C205.551 457.038 194.691 467.58 174.628 458.397C158.023 450.796 154.502 429.189 139.762 419.643C116.482 404.566 80.2284 417.403 55.5171 421.916C27.6258 427.008 0.329704 431.897 -27.916 434.474C-27.916 432.724 -27.916 431.847 -27.916 430.095C0.611027 427.438 28.134 422.374 56.288 417.109C80.8315 412.52 117.916 399.118 140.919 414.721C155.525 424.63 158.009 446.927 174.618 454.863C194.773 464.491 205.459 453.29 216.448 438.215C228.633 421.496 229.036 411.83 251.137 406.708C284.694 398.932 323.193 398.455 357.51 393.782C387.653 389.677 418.913 381.871 447.633 395.433C473.547 407.672 491.976 423.709 520.632 430.095C520.629 431.847 520.629 432.724 520.629 434.474Z" fill="url(#paint37_linear_66_148)"/>
<path id="Vector_40" d="M520.628 446.92C492.746 441.615 472.485 427.776 446.578 417.51C418.168 406.252 388.592 412.452 359.185 416.078C326.357 420.125 291.228 420.968 258.851 427.047C237.84 430.992 233.961 439.89 219.727 453.799C180.851 491.785 168.59 451.731 135.694 433.909C111.545 420.827 77.9308 431.691 52.7579 435.893C25.7913 440.393 -0.660763 444.686 -27.918 446.92C-27.918 445.169 -27.918 444.293 -27.918 442.54C-0.284632 440.168 26.4939 435.652 53.8148 430.928C78.8292 426.601 113.407 414.989 137.243 428.848C168.695 447.136 180.886 490.615 218.729 449.783C232.386 435.046 235.246 425.904 256.532 421.608C289.268 415.001 325.384 414.291 358.661 410.058C388.321 406.285 418.351 399.622 446.892 411.573C472.785 422.415 492.56 436.89 520.63 442.542C520.628 444.293 520.628 445.169 520.628 446.92Z" fill="url(#paint38_linear_66_148)"/>
<path id="Vector_41" d="M520.629 459.365C493.232 455.193 471.565 443.373 445.59 434.906C417.742 425.829 389.414 430.646 360.922 433.778C329.637 437.218 297.366 438.465 266.296 442.897C246.021 445.79 238.804 453.839 222.962 465.105C181.514 494.578 167.626 464.027 130.781 448.475C86.6786 429.862 18.2753 456.223 -27.916 459.365C-27.916 457.614 -27.916 456.738 -27.916 454.985C-1.41574 453.042 24.3711 449.198 50.6227 445.145C76.0645 441.218 107.879 431.846 132.579 443.325C168.101 459.832 181.133 493.648 221.768 461.142C237.062 448.906 243.036 440.53 263.559 437.266C295.139 432.243 328.406 431.134 360.277 427.47C389.119 424.153 417.875 418.843 445.951 428.714C471.896 437.835 493.069 450.398 520.627 454.985C520.629 456.738 520.629 457.614 520.629 459.365Z" fill="url(#paint39_linear_66_148)"/>
</g>
</g>
</g>
</g>
<defs>
<linearGradient id="paint0_linear_66_148" x1="-27.916" y1="-28.3398" x2="520.629" y2="-28.3398" gradientUnits="userSpaceOnUse">
<stop stop-color="#A4A2AB"/>
<stop offset="1" stop-color="#22291F"/>
</linearGradient>
<linearGradient id="paint1_linear_66_148" x1="-27.916" y1="-15.9612" x2="520.629" y2="-15.9612" gradientUnits="userSpaceOnUse">
<stop stop-color="#A4A2AB"/>
<stop offset="1" stop-color="#22291F"/>
</linearGradient>
<linearGradient id="paint2_linear_66_148" x1="-27.916" y1="-3.96962" x2="520.629" y2="-3.96962" gradientUnits="userSpaceOnUse">
<stop stop-color="#A4A2AB"/>
<stop offset="1" stop-color="#22291F"/>
</linearGradient>
<linearGradient id="paint3_linear_66_148" x1="-27.916" y1="8.03998" x2="520.629" y2="8.03998" gradientUnits="userSpaceOnUse">
<stop stop-color="#A4A2AB"/>
<stop offset="1" stop-color="#22291F"/>
</linearGradient>
<linearGradient id="paint4_linear_66_148" x1="-27.916" y1="20.0155" x2="520.629" y2="20.0155" gradientUnits="userSpaceOnUse">
<stop stop-color="#A4A2AB"/>
<stop offset="1" stop-color="#22291F"/>
</linearGradient>
<linearGradient id="paint5_linear_66_148" x1="-27.916" y1="32.1069" x2="520.629" y2="32.1069" gradientUnits="userSpaceOnUse">
<stop stop-color="#A4A2AB"/>
<stop offset="1" stop-color="#22291F"/>
</linearGradient>
<linearGradient id="paint6_linear_66_148" x1="-27.916" y1="44.2968" x2="520.629" y2="44.2968" gradientUnits="userSpaceOnUse">
<stop stop-color="#A4A2AB"/>
<stop offset="1" stop-color="#22291F"/>
</linearGradient>
<linearGradient id="paint7_linear_66_148" x1="-27.916" y1="57.4527" x2="520.629" y2="57.4527" gradientUnits="userSpaceOnUse">
<stop stop-color="#A4A2AB"/>
<stop offset="1" stop-color="#22291F"/>
</linearGradient>
<linearGradient id="paint8_linear_66_148" x1="-27.916" y1="71.6509" x2="520.629" y2="71.6509" gradientUnits="userSpaceOnUse">
<stop stop-color="#A4A2AB"/>
<stop offset="1" stop-color="#22291F"/>
</linearGradient>
<linearGradient id="paint9_linear_66_148" x1="-27.916" y1="86.6186" x2="520.629" y2="86.6186" gradientUnits="userSpaceOnUse">
<stop stop-color="#A4A2AB"/>
<stop offset="1" stop-color="#22291F"/>
</linearGradient>
<linearGradient id="paint10_linear_66_148" x1="-27.916" y1="101.945" x2="520.629" y2="101.945" gradientUnits="userSpaceOnUse">
<stop stop-color="#A4A2AB"/>
<stop offset="1" stop-color="#22291F"/>
</linearGradient>
<linearGradient id="paint11_linear_66_148" x1="-27.9164" y1="117.618" x2="520.629" y2="117.618" gradientUnits="userSpaceOnUse">
<stop stop-color="#A4A2AB"/>
<stop offset="1" stop-color="#22291F"/>
</linearGradient>
<linearGradient id="paint12_linear_66_148" x1="-27.9164" y1="133.209" x2="520.629" y2="133.209" gradientUnits="userSpaceOnUse">
<stop stop-color="#A4A2AB"/>
<stop offset="1" stop-color="#22291F"/>
</linearGradient>
<linearGradient id="paint13_linear_66_148" x1="-27.9164" y1="148.311" x2="520.629" y2="148.311" gradientUnits="userSpaceOnUse">
<stop stop-color="#A4A2AB"/>
<stop offset="1" stop-color="#22291F"/>
</linearGradient>
<linearGradient id="paint14_linear_66_148" x1="-27.9164" y1="162.383" x2="520.629" y2="162.383" gradientUnits="userSpaceOnUse">
<stop stop-color="#A4A2AB"/>
<stop offset="1" stop-color="#22291F"/>
</linearGradient>
<linearGradient id="paint15_linear_66_148" x1="-27.916" y1="176.015" x2="520.629" y2="176.015" gradientUnits="userSpaceOnUse">
<stop stop-color="#A4A2AB"/>
<stop offset="1" stop-color="#22291F"/>
</linearGradient>
<linearGradient id="paint16_linear_66_148" x1="-27.916" y1="188.72" x2="520.629" y2="188.72" gradientUnits="userSpaceOnUse">
<stop stop-color="#A4A2AB"/>
<stop offset="1" stop-color="#22291F"/>
</linearGradient>
<linearGradient id="paint17_linear_66_148" x1="-27.9164" y1="200.178" x2="520.629" y2="200.178" gradientUnits="userSpaceOnUse">
<stop stop-color="#A4A2AB"/>
<stop offset="1" stop-color="#22291F"/>
</linearGradient>
<linearGradient id="paint18_linear_66_148" x1="-27.9164" y1="211.071" x2="520.629" y2="211.071" gradientUnits="userSpaceOnUse">
<stop stop-color="#A4A2AB"/>
<stop offset="1" stop-color="#22291F"/>
</linearGradient>
<linearGradient id="paint19_linear_66_148" x1="-27.916" y1="220.522" x2="520.629" y2="220.522" gradientUnits="userSpaceOnUse">
<stop stop-color="#A4A2AB"/>
<stop offset="1" stop-color="#22291F"/>
</linearGradient>
<linearGradient id="paint20_linear_66_148" x1="-27.916" y1="229.42" x2="520.629" y2="229.42" gradientUnits="userSpaceOnUse">
<stop stop-color="#A4A2AB"/>
<stop offset="1" stop-color="#22291F"/>
</linearGradient>
<linearGradient id="paint21_linear_66_148" x1="-27.916" y1="238.097" x2="520.629" y2="238.097" gradientUnits="userSpaceOnUse">
<stop stop-color="#A4A2AB"/>
<stop offset="1" stop-color="#22291F"/>
</linearGradient>
<linearGradient id="paint22_linear_66_148" x1="-27.916" y1="246.881" x2="520.629" y2="246.881" gradientUnits="userSpaceOnUse">
<stop stop-color="#A4A2AB"/>
<stop offset="1" stop-color="#22291F"/>
</linearGradient>
<linearGradient id="paint23_linear_66_148" x1="-27.916" y1="256.266" x2="520.629" y2="256.266" gradientUnits="userSpaceOnUse">
<stop stop-color="#A4A2AB"/>
<stop offset="1" stop-color="#22291F"/>
</linearGradient>
<linearGradient id="paint24_linear_66_148" x1="-27.916" y1="266.169" x2="520.629" y2="266.169" gradientUnits="userSpaceOnUse">
<stop stop-color="#A4A2AB"/>
<stop offset="1" stop-color="#22291F"/>
</linearGradient>
<linearGradient id="paint25_linear_66_148" x1="-27.916" y1="277.132" x2="520.629" y2="277.132" gradientUnits="userSpaceOnUse">
<stop stop-color="#A4A2AB"/>
<stop offset="1" stop-color="#22291F"/>
</linearGradient>
<linearGradient id="paint26_linear_66_148" x1="-27.916" y1="288.505" x2="520.629" y2="288.505" gradientUnits="userSpaceOnUse">
<stop stop-color="#A4A2AB"/>
<stop offset="1" stop-color="#22291F"/>
</linearGradient>
<linearGradient id="paint27_linear_66_148" x1="-27.916" y1="298.723" x2="520.629" y2="298.723" gradientUnits="userSpaceOnUse">
<stop stop-color="#A4A2AB"/>
<stop offset="1" stop-color="#22291F"/>
</linearGradient>
<linearGradient id="paint28_linear_66_148" x1="-27.916" y1="308.256" x2="520.629" y2="308.256" gradientUnits="userSpaceOnUse">
<stop stop-color="#A4A2AB"/>
<stop offset="1" stop-color="#22291F"/>
</linearGradient>
<linearGradient id="paint29_linear_66_148" x1="-27.916" y1="317.742" x2="520.629" y2="317.742" gradientUnits="userSpaceOnUse">
<stop stop-color="#A4A2AB"/>
<stop offset="1" stop-color="#22291F"/>
</linearGradient>
<linearGradient id="paint30_linear_66_148" x1="-27.916" y1="333.817" x2="520.629" y2="333.817" gradientUnits="userSpaceOnUse">
<stop stop-color="#A4A2AB"/>
<stop offset="1" stop-color="#22291F"/>
</linearGradient>
<linearGradient id="paint31_linear_66_148" x1="-27.916" y1="350.019" x2="520.629" y2="350.019" gradientUnits="userSpaceOnUse">
<stop stop-color="#A4A2AB"/>
<stop offset="1" stop-color="#22291F"/>
</linearGradient>
<linearGradient id="paint32_linear_66_148" x1="-27.916" y1="365.571" x2="520.629" y2="365.571" gradientUnits="userSpaceOnUse">
<stop stop-color="#A4A2AB"/>
<stop offset="1" stop-color="#22291F"/>
</linearGradient>
<linearGradient id="paint33_linear_66_148" x1="-27.916" y1="380.009" x2="520.629" y2="380.009" gradientUnits="userSpaceOnUse">
<stop stop-color="#A4A2AB"/>
<stop offset="1" stop-color="#22291F"/>
</linearGradient>
<linearGradient id="paint34_linear_66_148" x1="-27.9158" y1="389.888" x2="520.63" y2="389.888" gradientUnits="userSpaceOnUse">
<stop stop-color="#A4A2AB"/>
<stop offset="1" stop-color="#22291F"/>
</linearGradient>
<linearGradient id="paint35_linear_66_148" x1="-27.916" y1="400.552" x2="520.629" y2="400.552" gradientUnits="userSpaceOnUse">
<stop stop-color="#A4A2AB"/>
<stop offset="1" stop-color="#22291F"/>
</linearGradient>
<linearGradient id="paint36_linear_66_148" x1="-27.9158" y1="412.255" x2="520.63" y2="412.255" gradientUnits="userSpaceOnUse">
<stop stop-color="#A4A2AB"/>
<stop offset="1" stop-color="#22291F"/>
</linearGradient>
<linearGradient id="paint37_linear_66_148" x1="-27.916" y1="424.815" x2="520.629" y2="424.815" gradientUnits="userSpaceOnUse">
<stop stop-color="#A4A2AB"/>
<stop offset="1" stop-color="#22291F"/>
</linearGradient>
<linearGradient id="paint38_linear_66_148" x1="-27.9164" y1="437.198" x2="520.629" y2="437.198" gradientUnits="userSpaceOnUse">
<stop stop-color="#A4A2AB"/>
<stop offset="1" stop-color="#22291F"/>
</linearGradient>
<linearGradient id="paint39_linear_66_148" x1="-27.916" y1="450.244" x2="520.629" y2="450.244" gradientUnits="userSpaceOnUse">
<stop stop-color="#A4A2AB"/>
<stop offset="1" stop-color="#22291F"/>
</linearGradient>
</defs>
</svg>
